<svg preserveAspectRatio="xMidYMid meet" data-bbox="29.833 30.1 140.118 139.95" viewBox="29.833 30.1 140.118 139.95" xmlns="http://www.w3.org/2000/svg" data-type="color" role="presentation" aria-hidden="true" aria-label=""><defs><style>#comp-kiix3hb3 svg [data-color="1"] {fill: #FFFFFF;}</style></defs>
    <g>
        <path d="M168.1 145.5l-49.4-50.1 26.5-26.8c6.1 1.2 12.5-.3 17.3-5 4.9-5 6.8-12.2 5-18.9-.3-1-1.3-1.7-2.4-1.4-.3.1-.6.3-.8.5l-9.8 9.9-7.1-2.4L145 44l9.8-9.9c.8-.8.8-2 0-2.8-.2-.2-.6-.4-.8-.5-1.7-.4-3.4-.7-5-.7-1.7 0-3.4.2-5 .7-3.2.8-6.2 2.6-8.7 5-4.7 4.8-6.1 11.3-5 17.5l-29.7 30.2c-1.2-1-2.6-1.5-4.1-1.5-1.7 0-3.4.6-4.6 2L90 85.9 53.1 48.6l1-1.1c.4-.4.6-1 .6-1.7l-.8-5.7c-.1-.6-.3-1-.8-1.3l-11.4-8.3c-.4-.2-.7-.4-1.1-.4-.6 0-1 .2-1.4.6l-6.5 6.6c-.7.7-.8 1.7-.2 2.5l8.1 11.5c.3.4.8.7 1.3.8l5.7.8c.6.1 1.2-.1 1.7-.6l1-1.1L87 88.4l-1.9 1.9c-2.4 2.4-2.5 6.2-.5 8.8l-31.8 32.2c-6.1-1.2-12.5.3-17.3 5-4.9 5-6.8 12.2-5 18.9.3 1.1 1.3 1.7 2.4 1.4.4-.1.6-.3.8-.5l9.8-9.9 7.1 2.4 2.4 7.3-9.8 9.9c-.8.8-.8 2 0 2.8.2.2.6.4.8.5 6.6 1.8 13.8-.1 18.7-5 4.7-4.8 6.1-11.3 5-17.5L96.3 118l49.4 50.1c2.5 2.6 6.7 2.6 9.2 0l13-13.2c2.7-2.7 2.7-6.9.2-9.4zM48.9 47.2L47.2 49l-3.9-.6-6.7-9.5 4.2-4.3 9.4 6.8.6 4-1.9 1.8zm39 46.1l6.5-6.6c.6-.6 1.2-.8 1.9-.8.4 0 .8.1 1.3.3L87.5 96.5c-.6-1-.5-2.3.4-3.2zm-23.1 51.2c-.5.5-.7 1.2-.5 1.9 1.3 5.2.1 11-3.9 15.1-2.9 2.9-6.8 4-10.8 4.1l7.3-7.5c.5-.6.7-1.3.5-2l-3.1-9.4c-.2-.6-.6-1-1.3-1.3l-9.2-3.1c-.7-.2-1.5-.1-2 .5l-7.4 7.5c0-4.1 1.1-8 4-11 4.1-4.1 9.7-5.4 14.9-4 .7.2 1.4 0 1.9-.5l78.1-79.3c.5-.5.7-1.2.5-1.9-1.3-5.2-.1-11 3.9-15.1 2-2 4.3-3.4 6.9-4.1.6-.1 1.3-.1 1.9-.1.6.1 1.3.1 2 .1l-7.4 7.5c-.5.6-.7 1.3-.5 2l3.1 9.4c.2.6.6 1 1.3 1.3l9.2 3.1c.7.2 1.5.1 2-.5l7.3-7.5c-.1 4.1-1.1 8-4 11-4.1 4.1-9.7 5.4-14.9 4-.7-.2-1.4 0-1.9.5l-77.9 79.3zm100.6 7.5l-13 13.2c-1.1 1.1-2.7 1.1-3.8 0l-49.4-50.1 3.8-3.8 49.4 50.1 2.7-2.8-49.4-50.1 3.8-3.8 49.4 50.1 2.7-2.8-49.4-50.1L116 98l49.4 50.1c1 1.2 1 2.9 0 3.9z" fill="currentColor" data-color="1"></path>
    </g>
</svg>