<svg id="Layer_1" data-name="Layer 1" xmlns="http://www.w3.org/2000/svg" viewBox="0 0 240 200"><defs><style>.sicon{fill:none;stroke:currentColor;stroke-linecap:round;stroke-miterlimit:10;stroke-width:5px;}</style></defs><rect class="sicon" x="5.89" y="32.61" width="228.22" height="108.61" rx="8"/><path class="sicon" d="M50.59,141.21V123.16a8,8,0,0,1,8-8H182.51a8,8,0,0,1,8,8v18.05"/><line class="sicon" x1="119.62" y1="49.28" x2="188.53" y2="49.28"/><line class="sicon" x1="207.25" y1="49.28" x2="220.46" y2="49.28"/><line class="sicon" x1="50.59" y1="128.35" x2="174.22" y2="128.35"/><line class="sicon" x1="150.12" y1="152.07" x2="150.12" y2="167.39"/><line class="sicon" x1="93.71" y1="152.07" x2="93.71" y2="167.39"/><line class="sicon" x1="121.91" y1="152.07" x2="121.91" y2="167.39"/><path class="sicon" d="M175.92,152.07c0,3.83-.82,11.07,4.86,15.32"/><path class="sicon" d="M67.91,152.07c0,3.83.82,11.07-4.86,15.32"/></svg>